<?xml version="1.0" encoding="UTF-8"?>
<svg width="45px" height="45px" viewBox="0 0 45 45" version="1.1" xmlns="http://www.w3.org/2000/svg" xmlns:xlink="http://www.w3.org/1999/xlink">
    <title>Path</title>
    <g id="Earlybean-Full-App-Screens" stroke="none" stroke-width="1" fill="none" fill-rule="evenodd">
        <g id="9" transform="translate(-71.000000, -2023.000000)" fill="#632F7F">
            <g id="Group-33" transform="translate(0.000000, 1998.000000)">
                <g id="Group-22" transform="translate(45.000000, 13.000000)">
                    <g id="Group-20">
                        <path d="M51.4297847,13.213646 C50.6472731,12.4308701 49.6069,12 48.500259,12 C47.393618,12 46.353245,12.4308701 45.57039,13.213646 L27.221712,31.5601272 C27.2155315,31.5663071 27.2090077,31.5728302 27.2031707,31.57901 C25.5962579,33.1950302 25.5990047,35.8169861 27.2110679,37.4288864 C27.9475696,38.165657 28.9199579,38.5920639 29.9599875,38.6370391 C30.0025638,38.6411591 30.0451402,38.643219 30.0880598,38.643219 L30.8194112,38.643219 L30.8194112,52.1515961 C30.8194112,54.8250503 32.9949239,57 35.6686483,57 L42.8509991,57 C43.5792603,57 44.1694917,56.4094849 44.1694917,55.6816406 L44.1694917,45.0908203 C44.1694917,43.8709946 45.162138,42.8787918 46.382087,42.8787918 L50.6184311,42.8787918 C51.83838,42.8787918 52.8306831,43.8709946 52.8306831,45.0908203 L52.8306831,55.6816406 C52.8306831,56.4094849 53.4209144,57 54.1491756,57 L61.3315264,57 C64.0055942,57 66.1807635,54.8250503 66.1807635,52.1515961 L66.1807635,38.643219 L66.8592378,38.643219 C67.9655354,38.643219 69.0059085,38.2123489 69.7891068,37.4292297 C71.4028868,35.8149262 71.4035734,33.1881638 69.7915103,31.5728302 L51.4297847,13.213646 Z" id="Path"></path>
                    </g>
                </g>
            </g>
        </g>
    </g>
</svg>